<svg xmlns="http://www.w3.org/2000/svg" version="1.1" xmlns:xlink="http://www.w3.org/1999/xlink" xmlns:svgjs="http://svgjs.dev/svgjs" width="1500" height="1500" viewBox="0 0 1500 1500"><rect width="1500" height="1500" fill="#ffffff"></rect><g transform="matrix(0.6666666666666666,0,0,0.6666666666666666,250.00000000000017,187.66666666666674)"><svg viewBox="0 0 320 360" data-background-color="#000000" preserveAspectRatio="xMidYMid meet" height="1687" width="1500" xmlns="http://www.w3.org/2000/svg" xmlns:xlink="http://www.w3.org/1999/xlink"><g id="tight-bounds" transform="matrix(1,0,0,1,0,0)"><svg viewBox="0 0 320 360" height="360" width="320"><g><svg></svg></g><g><svg viewBox="0 0 320 360" height="360" width="320"><g><path d="M320 204.145c-0.08-8.44-5.414-15.128-5.494-23.568-0.04-8.44 5.215-18.631 5.136-27.071-2.667-8.002-9.833-12.7-12.501-20.702-2.667-8.002-0.836-19.348-3.463-27.35-5.016-6.808-13.297-9.037-18.274-15.805-5.016-6.808-6.768-18.154-11.744-24.921-6.847-4.897-15.407-4.499-22.294-9.396-6.847-4.897-12.023-15.168-18.91-20.065-8.042-2.548-16.044 0.518-24.086-2.07-8.042-2.548-16.123-10.709-24.165-13.257-8.44 0.08-15.128 5.414-23.568 5.494-8.44 0.04-18.631-5.215-27.071-5.135-8.002 2.667-12.7 9.833-20.702 12.5-8.002 2.667-19.348 0.836-27.35 3.504-6.808 5.016-9.037 13.297-15.805 18.273-6.808 5.016-18.154 6.768-24.922 11.784-4.897 6.847-4.499 15.407-9.395 22.294-4.897 6.847-15.168 12.023-20.065 18.91-2.548 8.042 0.478 16.044-2.07 24.086-2.548 8.042-10.709 16.123-13.257 24.165 0.04 8.44 5.414 15.128 5.494 23.568 0.04 8.44-5.215 18.631-5.136 27.071 2.667 8.002 9.833 12.7 12.501 20.702 2.667 8.002 0.836 19.348 3.503 27.35 5.016 6.808 13.297 9.037 18.273 15.845 5.016 6.808 6.768 18.154 11.745 24.921 6.847 4.897 15.407 4.499 22.294 9.396 6.847 4.897 12.023 15.168 18.91 20.065 8.042 2.548 16.044-0.478 24.086 2.07 8.042 2.548 16.123 10.709 24.165 13.257 8.44-0.08 15.128-5.414 23.568-5.494 8.44-0.04 18.631 5.215 27.071 5.135 8.002-2.667 12.7-9.833 20.702-12.5 8.002-2.667 19.348-0.836 27.35-3.504 6.808-5.016 9.037-13.297 15.845-18.273 6.808-5.016 18.154-6.768 24.921-11.744 4.897-6.847 4.499-15.407 9.396-22.294 4.897-6.847 15.168-12.023 20.064-18.91 2.548-8.042-0.478-16.044 2.071-24.086 2.468-8.121 10.63-16.203 13.177-24.245zM305.987 227.395c-3.623 7.126-12.501 13.456-16.164 20.582-3.623 7.126-2.03 15.088-5.653 22.215-5.653 5.653-16.044 8.918-21.737 14.57-5.653 5.653-6.569 13.735-12.261 19.388-7.126 3.623-18.034 3.503-25.161 7.166-7.126 3.623-10.51 11.028-17.636 14.651-7.922 1.234-18.233-2.229-26.156-0.996-7.922 1.234-13.416 7.246-21.299 8.48-7.922-1.234-16.641-7.763-24.563-8.997-7.922-1.274-14.969 2.747-22.891 1.473-7.126-3.623-13.456-12.54-20.582-16.163-7.126-3.623-15.088-2.03-22.255-5.654-5.653-5.653-8.918-16.044-14.571-21.736-5.653-5.653-13.735-6.609-19.387-12.262-3.623-7.126-3.503-18.034-7.166-25.161-3.623-7.126-11.028-10.51-14.651-17.636-1.234-7.922 2.229-18.233 0.995-26.156-1.274-7.922-7.246-13.416-8.479-21.298 1.274-7.922 7.763-16.641 8.997-24.564 1.234-7.922-2.747-14.969-1.473-22.891 3.623-7.126 12.54-13.456 16.163-20.582 3.623-7.126 2.03-15.088 5.653-22.254 5.653-5.653 16.044-8.918 21.737-14.571 5.653-5.653 6.609-13.735 12.262-19.388 7.126-3.623 18.034-3.503 25.16-7.166 7.126-3.623 10.51-11.028 17.637-14.651 7.922-1.234 18.233 2.229 26.155 0.996 7.922-1.234 13.416-7.246 21.299-8.48 7.922 1.234 16.641 7.763 24.564 8.997 7.922 1.274 14.969-2.747 22.891-1.473 7.126 3.623 13.456 12.54 20.582 16.163 7.126 3.623 15.088 2.03 22.254 5.654 5.653 5.653 8.918 16.044 14.571 21.736 5.653 5.653 13.735 6.609 19.388 12.262 3.623 7.126 3.503 18.034 7.166 25.161 3.623 7.126 11.028 10.51 14.65 17.636 1.274 7.922-2.229 18.233-0.995 26.156 1.234 7.922 7.246 13.416 8.48 21.298-1.234 7.922-7.763 16.641-8.997 24.564-1.234 7.922 2.747 15.009 1.473 22.931z" fill="#000000" fill-rule="nonzero" stroke="none" stroke-width="1" stroke-linecap="butt" stroke-linejoin="miter" stroke-miterlimit="10" stroke-dasharray="" stroke-dashoffset="0" font-family="none" font-weight="none" font-size="none" text-anchor="none" style="mix-blend-mode: normal" data-fill-palette-color="tertiary"></path></g><g transform="matrix(1,0,0,1,48,143.693303138143)"><svg viewBox="0 0 224 72.61339372371401" height="72.61339372371401" width="224"><g><svg viewBox="0 0 224 72.61339372371401" height="72.61339372371401" width="224"><g><svg viewBox="0 0 224 72.61339372371401" height="72.61339372371401" width="224"><g><svg viewBox="0 0 224 72.61339372371401" height="72.61339372371401" width="224"><g id="textblocktransform"><svg viewBox="0 0 224 72.61339372371401" height="72.61339372371401" width="224" id="textblock"><g><svg viewBox="0 0 224 72.61339372371401" height="72.61339372371401" width="224"><g transform="matrix(1,0,0,1,0,0)"><svg width="224" viewBox="0.05 -34.35 154.53 50.1" height="72.61339372371401" data-palette-color="url(#682eca67-a975-46a7-b4ad-d3b7d42b17c0)"></svg></g></svg></g></svg></g></svg></g><g></g></svg></g></svg></g></svg></g></svg></g><defs></defs><mask id="7d19a084-305f-45cd-86af-2bf0a9eb274e"><g id="SvgjsG1112"><svg viewBox="0 0 320 360" height="360" width="320"><g><svg></svg></g><g><svg viewBox="0 0 320 360" height="360" width="320"><g><path d="M320 204.145c-0.08-8.44-5.414-15.128-5.494-23.568-0.04-8.44 5.215-18.631 5.136-27.071-2.667-8.002-9.833-12.7-12.501-20.702-2.667-8.002-0.836-19.348-3.463-27.35-5.016-6.808-13.297-9.037-18.274-15.805-5.016-6.808-6.768-18.154-11.744-24.921-6.847-4.897-15.407-4.499-22.294-9.396-6.847-4.897-12.023-15.168-18.91-20.065-8.042-2.548-16.044 0.518-24.086-2.07-8.042-2.548-16.123-10.709-24.165-13.257-8.44 0.08-15.128 5.414-23.568 5.494-8.44 0.04-18.631-5.215-27.071-5.135-8.002 2.667-12.7 9.833-20.702 12.5-8.002 2.667-19.348 0.836-27.35 3.504-6.808 5.016-9.037 13.297-15.805 18.273-6.808 5.016-18.154 6.768-24.922 11.784-4.897 6.847-4.499 15.407-9.395 22.294-4.897 6.847-15.168 12.023-20.065 18.91-2.548 8.042 0.478 16.044-2.07 24.086-2.548 8.042-10.709 16.123-13.257 24.165 0.04 8.44 5.414 15.128 5.494 23.568 0.04 8.44-5.215 18.631-5.136 27.071 2.667 8.002 9.833 12.7 12.501 20.702 2.667 8.002 0.836 19.348 3.503 27.35 5.016 6.808 13.297 9.037 18.273 15.845 5.016 6.808 6.768 18.154 11.745 24.921 6.847 4.897 15.407 4.499 22.294 9.396 6.847 4.897 12.023 15.168 18.91 20.065 8.042 2.548 16.044-0.478 24.086 2.07 8.042 2.548 16.123 10.709 24.165 13.257 8.44-0.08 15.128-5.414 23.568-5.494 8.44-0.04 18.631 5.215 27.071 5.135 8.002-2.667 12.7-9.833 20.702-12.5 8.002-2.667 19.348-0.836 27.35-3.504 6.808-5.016 9.037-13.297 15.845-18.273 6.808-5.016 18.154-6.768 24.921-11.744 4.897-6.847 4.499-15.407 9.396-22.294 4.897-6.847 15.168-12.023 20.064-18.91 2.548-8.042-0.478-16.044 2.071-24.086 2.468-8.121 10.63-16.203 13.177-24.245zM305.987 227.395c-3.623 7.126-12.501 13.456-16.164 20.582-3.623 7.126-2.03 15.088-5.653 22.215-5.653 5.653-16.044 8.918-21.737 14.57-5.653 5.653-6.569 13.735-12.261 19.388-7.126 3.623-18.034 3.503-25.161 7.166-7.126 3.623-10.51 11.028-17.636 14.651-7.922 1.234-18.233-2.229-26.156-0.996-7.922 1.234-13.416 7.246-21.299 8.48-7.922-1.234-16.641-7.763-24.563-8.997-7.922-1.274-14.969 2.747-22.891 1.473-7.126-3.623-13.456-12.54-20.582-16.163-7.126-3.623-15.088-2.03-22.255-5.654-5.653-5.653-8.918-16.044-14.571-21.736-5.653-5.653-13.735-6.609-19.387-12.262-3.623-7.126-3.503-18.034-7.166-25.161-3.623-7.126-11.028-10.51-14.651-17.636-1.234-7.922 2.229-18.233 0.995-26.156-1.274-7.922-7.246-13.416-8.479-21.298 1.274-7.922 7.763-16.641 8.997-24.564 1.234-7.922-2.747-14.969-1.473-22.891 3.623-7.126 12.54-13.456 16.163-20.582 3.623-7.126 2.03-15.088 5.653-22.254 5.653-5.653 16.044-8.918 21.737-14.571 5.653-5.653 6.609-13.735 12.262-19.388 7.126-3.623 18.034-3.503 25.16-7.166 7.126-3.623 10.51-11.028 17.637-14.651 7.922-1.234 18.233 2.229 26.155 0.996 7.922-1.234 13.416-7.246 21.299-8.48 7.922 1.234 16.641 7.763 24.564 8.997 7.922 1.274 14.969-2.747 22.891-1.473 7.126 3.623 13.456 12.54 20.582 16.163 7.126 3.623 15.088 2.03 22.254 5.654 5.653 5.653 8.918 16.044 14.571 21.736 5.653 5.653 13.735 6.609 19.388 12.262 3.623 7.126 3.503 18.034 7.166 25.161 3.623 7.126 11.028 10.51 14.65 17.636 1.274 7.922-2.229 18.233-0.995 26.156 1.234 7.922 7.246 13.416 8.48 21.298-1.234 7.922-7.763 16.641-8.997 24.564-1.234 7.922 2.747 15.009 1.473 22.931z" fill="black" fill-rule="nonzero" stroke="none" stroke-width="1" stroke-linecap="butt" stroke-linejoin="miter" stroke-miterlimit="10" stroke-dasharray="" stroke-dashoffset="0" font-family="none" font-weight="none" font-size="none" text-anchor="none" style="mix-blend-mode: normal"></path></g><g transform="matrix(1,0,0,1,48,143.693303138143)"><svg viewBox="0 0 224 72.61339372371401" height="72.61339372371401" width="224"><g><svg viewBox="0 0 224 72.61339372371401" height="72.61339372371401" width="224"><g><svg viewBox="0 0 224 72.61339372371401" height="72.61339372371401" width="224"><g><svg viewBox="0 0 224 72.61339372371401" height="72.61339372371401" width="224"><g id="SvgjsG1111"><svg viewBox="0 0 224 72.61339372371401" height="72.61339372371401" width="224" id="SvgjsSvg1110"><g><svg viewBox="0 0 224 72.61339372371401" height="72.61339372371401" width="224"><g transform="matrix(1,0,0,1,0,0)"><svg width="224" viewBox="0.05 -34.35 154.53 50.1" height="72.61339372371401" data-palette-color="url(#682eca67-a975-46a7-b4ad-d3b7d42b17c0)"><path d="M22.25-31.25L22.25-31.25 22.15-34Q22.15-34.35 22.35-34.35L22.35-34.35Q22.4-34.35 22.5-34.1L22.5-34.1Q22.8-32.35 22.8-30.8 22.8-29.25 22.8-28.6L22.8-28.6Q24.4-28.7 24.8-28.7L24.8-28.7Q27.4-28.7 31.1-27.9L31.1-27.9Q33.9-30.55 37-30.55L37-30.55Q38.7-30.55 39.93-29.33 41.15-28.1 41.15-26.3L41.15-26.3Q41.15-25.65 40.9-25.65L40.9-25.65Q40.8-25.65 40.55-27L40.55-27Q40.25-29.1 37.5-29.1L37.5-29.1Q35.5-29.1 33.35-27.3L33.35-27.3Q36.25-26.4 38.4-24.75L38.4-24.75Q41-22.65 41-20.05L41-20.05Q41-16.85 37.3-14.95L37.3-14.95Q34.5-13.5 30.85-13.3L30.85-13.3Q40.65-8.75 40.65-2.5L40.65-2.5Q40.65 0.45 38.2 2.43 35.75 4.4 32.75 4.4L32.75 4.4Q28.1 4.4 24.65 3.3L24.65 3.3 17.15 0.2Q14.5 3.4 12.1 4.4L12.1 4.4Q9.75 5.55 5.5 5.55L5.5 5.55Q3.65 5.55 1.95 4.3L1.95 4.3Q0.05 3 0.05 1 0.05-1 2.1-2.05 4.15-3.1 6.8-3.1 9.45-3.1 12.9-2.05L12.9-2.05Q16.7-6.4 19.35-14.2L19.35-14.2Q21.55-20.95 22.1-27.8L22.1-27.8Q13.1-27.15 8.25-22.15L8.25-22.15Q6.35-20.1 6.35-17.8L6.35-17.8Q6.35-14 10.55-12.25L10.55-12.25Q11.1-11.95 11.95-11.78 12.8-11.6 12.8-11.45L12.8-11.45Q12.8-11.2 12.5-11.2L12.5-11.2 12.35-11.25Q9.45-11.45 6.75-13.75 4.05-16.05 4.05-18.9L4.05-18.9Q4.05-21.05 5.8-22.8L5.8-22.8Q11-28.15 22.15-28.6L22.15-28.6Q22.25-30.4 22.25-31.25ZM38.8-0.95L38.8-0.95Q38.8-6.85 30.85-10.65L30.85-10.65 28-11.85Q27.9-11.95 27.9-12.35L27.9-12.35Q27.9-13.65 29.25-13.95L29.25-13.95 30.2-13.95Q30.85-13.95 31.85-14.15L31.85-14.15Q34.65-14.7 36.45-16.05L36.45-16.05Q38.6-17.8 38.6-20.2 38.6-22.6 36.93-24.25 35.25-25.9 32.75-26.75L32.75-26.75Q29.75-24.05 27.25-18.8L27.25-18.8Q25.75-15.6 23-9.47 20.25-3.35 17.7-0.45L17.7-0.45Q22.25 1.25 25.55 2.33 28.85 3.4 32.4 3.4L32.4 3.4Q38.8 3.4 38.8-0.95ZM30.55-27.3L30.55-27.3Q27.55-27.9 25.43-27.9 23.3-27.9 22.75-27.85L22.75-27.85Q22.35-20.9 20.2-14.1L20.2-14.1Q17.6-6.2 13.8-1.75L13.8-1.75 15.7-1.1Q17.65-3.2 19.9-8.03 22.15-12.85 24.75-18.35L24.75-18.35Q27.65-24.25 30.55-27.3ZM6.05 2.6L6.05 2.6Q5.1 2.6 5.1 2.25L5.1 2.25Q5.1 2 5.95 2L5.95 2Q9.25 2 12.55-1.55L12.55-1.55Q9.4-2.65 6.95-2.65 4.5-2.65 2.7-1.88 0.9-1.1 0.9 0.65 0.9 2.4 2.55 3.45L2.55 3.45Q4 4.45 6.18 4.45 8.35 4.45 11.18 2.98 14 1.5 15.3-0.45L15.3-0.45 13.4-1.3Q9.95 2.6 6.05 2.6ZM58.7-6.8L58.7-6.8Q58.75-6.8 58.75-6.65 58.75-6.5 58.35-5.8L58.35-5.8Q56.8-3.3 53.85-1.18 50.9 0.95 48.3 0.95L48.3 0.95Q44.75 0.95 44.75-3.65L44.75-3.65Q44.75-5.2 45.1-6.95L45.1-6.95Q44.65-7.35 44.3-8.05L44.3-8.05Q44.35-8 44.55-7.93 44.75-7.85 44.92-7.78 45.1-7.7 45.3-7.65L45.3-7.65Q45.8-10.1 48.35-12.7 50.9-15.3 53.3-15.3L53.3-15.3Q53.85-15.3 53.85-15.18 53.85-15.05 53.15-14.65L53.15-14.65Q51.3-13.65 49.7-11.55L49.7-11.55Q48-9.45 47.25-7.35L47.25-7.35 47.35-7.25Q49.75-7.25 52.35-9.55 54.95-11.85 54.95-14.25L54.95-14.25Q54.95-14.95 54.57-15.58 54.2-16.2 53.35-16.2 52.5-16.2 51.22-15.43 49.95-14.65 49.82-14.65 49.7-14.65 49.7-14.7L49.7-14.7Q49.7-15.3 51.32-15.95 52.95-16.6 53.97-16.6 55-16.6 55.75-15.95 56.5-15.3 56.5-14.15L56.5-14.15Q56.5-11.5 53.22-9.15 49.95-6.8 47.05-6.55L47.05-6.55Q46.65-5.35 46.65-4.25L46.65-4.25Q46.65-0.1 49.65-0.1L49.65-0.1Q51.95-0.1 54.25-1.93 56.55-3.75 57.95-6.1L57.95-6.1Q58.4-6.8 58.7-6.8ZM74.6-6.3Q74.9-6.7 75.05-6.7 75.2-6.7 75.2-6.48 75.2-6.25 75-6L75-6Q70.5 0.7 68.05 0.7L68.05 0.7Q66.7 0.7 66.02-0.58 65.35-1.85 65.35-3.43 65.35-5 65.85-7.05L65.85-7.05Q62.7-0.05 59.35-0.05L59.35-0.05Q57.3-0.05 57.3-2.7L57.3-2.7Q57.3-6.95 61.42-11.55 65.55-16.15 69.65-16.15L69.65-16.15Q71.6-16.15 71.6-14.45L71.6-14.45Q71.6-12.35 68.8-10.25L68.8-10.25Q67.35-6.65 67.35-3.33 67.35 0 68.6 0L68.6 0Q70.25 0 74.6-6.3L74.6-6.3ZM69.3-11.95L69.3-11.95Q70.1-13.05 70.1-14.15 70.1-15.25 69.05-15.25L69.05-15.25Q66.55-15.25 62.5-10.33 58.45-5.4 58.45-2.75L58.45-2.75Q58.45-1.6 59.55-1.6L59.55-1.6Q62.7-1.6 65.65-8.6L65.65-8.6Q64.75-8.35 64.45-8.35 64.15-8.35 64.15-8.5L64.15-8.5Q64.15-8.75 64.85-9L64.85-9 66.4-9.9Q66.5-10.75 67.45-12.13 68.4-13.5 69.25-13.5L69.25-13.5Q69.55-13.5 69.55-13.1 69.55-12.7 69.3-11.95ZM90.34-2.85L90.34-2.85 90.34-2.75Q88.59-0.35 86.49-0.35 84.39-0.35 84.39-4.05L84.39-4.05Q84.39-5.55 84.64-8.3L84.64-8.3Q82.74-4.7 78.39-1.3L78.39-1.3Q77.94-0.95 76.69 0L76.69 0Q76.44 0.2 75.82 0.2 75.19 0.2 75.19-0.1L75.19-0.1Q75.19-1.9 76.82-5.05 78.44-8.2 78.84-9.58 79.24-10.95 79.24-13.45L79.24-13.45Q79.04-12.65 77.44-9.9L77.44-9.9Q75.04-5.75 74.74-5.75 74.44-5.75 74.44-5.95L74.44-5.95 75.94-8.5Q78.34-12.7 79.04-15.55L79.04-15.55Q79.34-16.85 80.24-16.85 81.14-16.85 81.14-14.58 81.14-12.3 79.84-8.2L79.84-8.2 77.74-1.65Q81.94-4.85 84.74-9.5L84.74-9.5Q85.24-13 86.09-14.1L86.09-14.1Q86.39-14.45 87.22-14.45 88.04-14.45 88.04-13.9L88.04-13.9Q88.04-12.4 87.09-11.15L87.09-11.15Q85.99-7.4 85.99-3.85L85.99-3.85Q85.99-1.45 87.49-1.45L87.49-1.45Q88.24-1.45 89.02-2.1 89.79-2.75 90.02-2.95 90.24-3.15 90.19-3.15L90.19-3.15Q90.34-3.15 90.34-2.85ZM107.24-16.1L107.24-16.1Q107.24-15.25 98.79-12.85L98.79-12.85Q96.54-8.5 96.04-7.3L96.04-7.3Q94.74-4.2 94.74-1.35L94.74-1.35Q94.74 0.3 95.84 0.3L95.84 0.3Q97.19 0.3 99.39-1.6L99.39-1.6 101.64-3.55Q101.79-3.55 101.79-3.4 101.79-3.25 101.64-2.95L101.64-2.95Q100.84-1.75 98.94-0.28 97.04 1.2 95.94 1.2L95.94 1.2Q93.44 1.2 93.44-1.85L93.44-1.85Q93.44-4.05 94.54-7.3L94.54-7.3Q94.04-8.7 92.54-9.35L92.54-9.35Q92.09-9.55 91.19-9.9 90.29-10.25 89.74-10.5 89.19-10.75 89.19-11.53 89.19-12.3 89.89-12.45L89.89-12.45 91.24-12.45Q93.84-12.45 96.79-13.05L96.79-13.05 101.59-23.8Q101.94-24.7 103.27-24.7 104.59-24.7 104.59-24.2L104.59-24.2Q104.59-24.05 102.72-19.93 100.84-15.8 100.64-15.6L100.64-15.6 99.79-14.8 99.19-13.6Q100.39-13.95 106.49-16.1L106.49-16.1Q106.99-16.2 107.12-16.2 107.24-16.2 107.24-16.1ZM96.44-12.2L96.44-12.2Q93.64-11.55 91.39-11.2L91.39-11.2Q93.99-9.85 94.74-8L94.74-8Q95.24-9.4 96.44-12.2ZM111.79-6.85L111.79-6.85Q111.89-6.85 111.89-6.75L111.89-6.75Q111.89-5.9 109.14-3L109.14-3Q106.94-0.8 105.79-0.8L105.79-0.8Q103.24-0.8 103.24-3.35L103.24-3.35Q103.24-5.25 104.24-8.15L104.24-8.15 103.34-6.75Q102.69-5.65 102.44-5.65L102.44-5.65Q102.34-5.65 102.34-5.93 102.34-6.2 103.09-7.2 103.84-8.2 105.29-11.3L105.29-11.3Q105.69-12.35 106.39-13.65L106.39-13.65Q106.64-14.1 107.56-14.1 108.49-14.1 108.49-13.6 108.49-13.1 107.99-12.1 107.49-11.1 107.14-10.95L107.14-10.95Q104.54-5.75 104.54-3.3L104.54-3.3Q104.54-1.65 105.64-1.65L105.64-1.65Q107.44-1.65 109.59-4.25L109.59-4.25Q110.49-5.3 110.69-5.53 110.89-5.75 111.09-6 111.29-6.25 111.44-6.4L111.44-6.4Q111.69-6.65 111.79-6.85ZM110.24-20.45Q111.34-20.95 111.59-20.95 111.84-20.95 111.84-20.83 111.84-20.7 110.69-19.4L110.69-19.4 109.94-17.85Q109.49-16.85 108.79-16.85L108.79-16.85Q107.79-16.85 107.79-17.9L107.79-17.9Q107.79-18.4 108.46-19.18 109.14-19.95 110.24-20.45ZM125.69-14.45L125.69-14.45Q125.69-12.35 122.89-10.25L122.89-10.25Q119.14-1.3 117.64 4.85L117.64 4.85Q120.54 9.55 120.54 11.03 120.54 12.5 119.56 14.13 118.59 15.75 117.39 15.75 116.19 15.75 115.79 15.05L115.79 15.05Q114.99 14.55 114.99 12.05 114.99 9.55 116.29 4.6L116.29 4.6Q114.89 2 114.69-0.3L114.69-0.3Q114.04-0.05 113.44-0.05L113.44-0.05Q111.39-0.05 111.39-2.7L111.39-2.7Q111.39-6.5 115.69-11.4 119.99-16.3 123.64-16.3L123.64-16.3Q125.69-16.3 125.69-14.45ZM124.24-14.05L124.24-14.05Q124.24-15.15 123.14-15.15L123.14-15.15Q120.44-15.15 116.54-10.35 112.64-5.55 112.64-2.75L112.64-2.75Q112.64-1.6 113.64-1.6L113.64-1.6Q114.09-1.6 114.69-1.85L114.69-1.85Q114.94-3.45 116.24-4.6L116.24-4.6Q116.44-4.8 116.61-4.8 116.79-4.8 116.79-4.6L116.79-4.6Q116.59-4.35 116.01-3.7 115.44-3.05 115.29-2.2L115.29-2.2Q117.74-3.8 119.74-8.6L119.74-8.6Q118.84-8.35 118.54-8.35 118.24-8.35 118.24-8.5L118.24-8.5Q118.24-8.75 118.94-9L118.94-9 120.49-9.9Q120.74-10.7 121.39-11.5 122.04-12.3 122.61-12.3 123.19-12.3 123.39-11.95L123.39-11.95Q124.24-13.1 124.24-14.05ZM119.94-7.05L119.94-7.05Q117.69-2.1 115.29-0.6L115.29-0.6Q115.49 1.2 116.69 3.25L116.69 3.25Q117.64-0.05 118.66-3.13 119.69-6.2 119.94-7.05ZM118.74 10.75L118.74 10.75Q118.74 9.25 117.29 6.45L117.29 6.45Q116.79 8.95 116.79 10.75 116.79 12.55 117.29 13.75L117.29 13.75 117.29 13.85 117.44 13.85Q118.74 13.85 118.74 10.75ZM140.13-2.85L140.13-2.85 140.13-2.75Q138.38-0.35 136.28-0.35 134.18-0.35 134.18-4.05L134.18-4.05Q134.18-5.55 134.43-8.3L134.43-8.3Q132.53-4.7 128.18-1.3L128.18-1.3Q127.73-0.95 126.48 0L126.48 0Q126.23 0.2 125.61 0.2 124.98 0.2 124.98-0.1L124.98-0.1Q124.98-1.9 126.61-5.05 128.23-8.2 128.63-9.58 129.03-10.95 129.03-13.45L129.03-13.45Q128.83-12.65 127.23-9.9L127.23-9.9Q124.83-5.75 124.53-5.75 124.23-5.75 124.23-5.95L124.23-5.95 125.73-8.5Q128.13-12.7 128.83-15.55L128.83-15.55Q129.13-16.85 130.03-16.85 130.93-16.85 130.93-14.58 130.93-12.3 129.63-8.2L129.63-8.2 127.53-1.65Q131.73-4.85 134.53-9.5L134.53-9.5Q135.03-13 135.88-14.1L135.88-14.1Q136.18-14.45 137.01-14.45 137.83-14.45 137.83-13.9L137.83-13.9Q137.83-12.4 136.88-11.15L136.88-11.15Q135.78-7.4 135.78-3.85L135.78-3.85Q135.78-1.45 137.28-1.45L137.28-1.45Q138.03-1.45 138.81-2.1 139.58-2.75 139.81-2.95 140.03-3.15 139.98-3.15L139.98-3.15Q140.13-3.15 140.13-2.85ZM154.53-6.8L154.53-6.8Q154.58-6.8 154.58-6.65 154.58-6.5 154.18-5.8L154.18-5.8Q152.63-3.3 149.68-1.18 146.73 0.95 144.13 0.95L144.13 0.95Q140.58 0.95 140.58-3.65L140.58-3.65Q140.58-5.2 140.93-6.95L140.93-6.95Q140.48-7.35 140.13-8.05L140.13-8.05Q140.18-8 140.38-7.93 140.58-7.85 140.76-7.78 140.93-7.7 141.13-7.65L141.13-7.65Q141.63-10.1 144.18-12.7 146.73-15.3 149.13-15.3L149.13-15.3Q149.68-15.3 149.68-15.18 149.68-15.05 148.98-14.65L148.98-14.65Q147.13-13.65 145.53-11.55L145.53-11.55Q143.83-9.45 143.08-7.35L143.08-7.35 143.18-7.25Q145.58-7.25 148.18-9.55 150.78-11.85 150.78-14.25L150.78-14.25Q150.78-14.95 150.41-15.58 150.03-16.2 149.18-16.2 148.33-16.2 147.06-15.43 145.78-14.65 145.66-14.65 145.53-14.65 145.53-14.7L145.53-14.7Q145.53-15.3 147.16-15.95 148.78-16.6 149.81-16.6 150.83-16.6 151.58-15.95 152.33-15.3 152.33-14.15L152.33-14.15Q152.33-11.5 149.06-9.15 145.78-6.8 142.88-6.55L142.88-6.55Q142.48-5.35 142.48-4.25L142.48-4.25Q142.48-0.1 145.48-0.1L145.48-0.1Q147.78-0.1 150.08-1.93 152.38-3.75 153.78-6.1L153.78-6.1Q154.23-6.8 154.53-6.8Z" opacity="1" transform="matrix(1,0,0,1,0,0)" fill="white" class="wordmark-text-0" id="SvgjsPath1109"></path></svg></g></svg></g></svg></g></svg></g><g></g></svg></g></svg></g></svg></g></svg></g><defs><mask></mask></defs></svg><rect width="320" height="360" fill="black" stroke="none" visibility="hidden"></rect></g></mask><linearGradient x1="0.054" x2="0.941" y1="0.5" y2="0.5" id="682eca67-a975-46a7-b4ad-d3b7d42b17c0"><stop stop-color="#864d25" offset="0"></stop><stop stop-color="#f1c4b3" offset="0.498"></stop><stop stop-color="#864d25" offset="1"></stop></linearGradient><rect width="320.0000000000001" height="360" fill="#000000" mask="url(#7d19a084-305f-45cd-86af-2bf0a9eb274e)" data-fill-palette-color="primary"></rect></svg><rect width="320" height="360" fill="none" stroke="none" visibility="hidden"></rect></g></svg></g></svg>